<svg width="118" height="115" viewBox="0 0 118 115" fill="none" xmlns="http://www.w3.org/2000/svg">
<path d="M80.491 113.648H27.9967C25.6002 113.648 23.2808 112.706 21.4485 110.987C19.6162 109.268 18.3888 106.884 17.9834 104.256L10.7695 57.4971H97.7179L90.5041 104.256C90.0987 106.884 88.8714 109.268 87.0391 110.987C85.2068 112.706 82.8875 113.648 80.491 113.648Z" fill="white"/>
<path d="M10.5816 53.4869H97.9063C99.6511 53.4869 101.154 55.0786 101.154 57.1572C101.154 59.2359 99.6511 60.8276 97.9063 60.8276H10.5816C8.83674 60.8276 7.33374 59.2359 7.33374 57.1572C7.33374 55.0786 8.83674 53.4869 10.5816 53.4869Z" fill="black" stroke="white"/>
<path d="M97.907 61.6566H10.5815C9.50917 61.6566 8.48078 61.1826 7.72254 60.3389C6.9643 59.4952 6.53833 58.3509 6.53833 57.1577C6.53833 55.9645 6.9643 54.8202 7.72254 53.9765C8.48078 53.1328 9.50917 52.6588 10.5815 52.6588H97.907C98.9793 52.6588 100.008 53.1328 100.766 53.9765C101.524 54.8202 101.95 55.9645 101.95 57.1577C101.95 58.3509 101.524 59.4952 100.766 60.3389C100.008 61.1826 98.9793 61.6566 97.907 61.6566ZM10.5824 53.3165C9.66689 53.3165 8.78885 53.7212 8.14146 54.4416C7.49408 55.162 7.13038 56.139 7.13038 57.1577C7.13038 58.1765 7.49408 59.1535 8.14146 59.8738C8.78885 60.5942 9.66689 60.9989 10.5824 60.9989H97.907C98.8225 60.9989 99.7006 60.5942 100.348 59.8738C100.995 59.1535 101.359 58.1765 101.359 57.1577C101.359 56.139 100.995 55.162 100.348 54.4416C99.7006 53.7212 98.8225 53.3165 97.907 53.3165H10.5824Z" fill="#757575"/>
<path d="M65.8071 54.598C64.8308 55.9637 65.0344 57.9515 66.2618 59.0378C67.4891 60.1241 69.2756 59.8976 70.2518 58.5319L86.9644 35.152C87.9407 33.7863 87.7371 31.7985 86.5097 30.7122C85.2824 29.6259 83.4959 29.8524 82.5197 31.2181L65.8071 54.598Z" fill="white"/>
<path d="M68.0225 60.0547C67.3154 60.0551 66.6292 59.7874 66.0771 59.2956C65.4272 58.7191 65.0093 57.8792 64.9152 56.9603C64.8211 56.0413 65.0584 55.1184 65.5751 54.3939L82.2875 31.0138C82.5439 30.6552 82.8611 30.3564 83.2213 30.1343C83.5814 29.9122 83.9773 29.7712 84.3864 29.7193C84.7955 29.6675 85.2097 29.7058 85.6055 29.8321C86.0013 29.9584 86.3708 30.1702 86.6931 30.4554C87.0153 30.7406 87.2839 31.0936 87.4835 31.4943C87.6831 31.895 87.8098 32.3356 87.8564 32.7908C87.903 33.246 87.8686 33.7069 87.7551 34.1473C87.6416 34.5877 87.4512 34.9989 87.1949 35.3575L70.4827 58.7373C70.2272 59.0968 69.9101 59.3963 69.5498 59.6185C69.1895 59.8407 68.7932 59.9811 68.3838 60.0318C68.2639 60.047 68.1433 60.0546 68.0225 60.0547ZM66.445 58.781C66.7065 59.0125 67.0064 59.1844 67.3276 59.2868C67.6487 59.3893 67.9849 59.4204 68.3169 59.3783C68.6489 59.3362 68.9701 59.2218 69.2624 59.0415C69.5546 58.8612 69.812 58.6187 70.02 58.3277L86.7322 34.9476C86.9402 34.6566 87.0947 34.323 87.1869 33.9656C87.279 33.6082 87.307 33.2342 87.2692 32.8648C87.2314 32.4954 87.1286 32.1379 86.9667 31.8127C86.8048 31.4875 86.5868 31.2009 86.3254 30.9695C86.0639 30.738 85.7641 30.5661 85.4429 30.4635C85.1217 30.361 84.7856 30.3299 84.4536 30.3719C84.1216 30.4139 83.8003 30.5283 83.5081 30.7085C83.2158 30.8887 82.9583 31.1312 82.7503 31.4221L66.0379 54.802C65.6185 55.3899 65.4259 56.1388 65.5023 56.8845C65.5786 57.6302 65.9176 58.3118 66.445 58.7797V58.781Z" fill="#757575"/>
<path d="M67.8387 58.022C68.4297 58.022 68.9088 57.4889 68.9088 56.8313C68.9088 56.1736 68.4297 55.6405 67.8387 55.6405C67.2477 55.6405 66.7686 56.1736 66.7686 56.8313C66.7686 57.4889 67.2477 58.022 67.8387 58.022Z" fill="white"/>
<path d="M67.8418 58.3511C67.6398 58.3513 67.4402 58.3016 67.2575 58.2057C67.0748 58.1098 66.9134 57.97 66.785 57.7964C66.6567 57.6228 66.5644 57.4198 66.515 57.2018C66.4655 56.9838 66.4601 56.7563 66.4991 56.5358C66.5495 56.2536 66.6708 55.9932 66.8489 55.7847C67.0271 55.5763 67.2548 55.4284 67.5055 55.3582C67.7562 55.2881 68.0197 55.2986 68.2652 55.3885C68.5108 55.4785 68.7284 55.6441 68.8927 55.8662C69.057 56.0883 69.1612 56.3578 69.1933 56.6432C69.2254 56.9287 69.184 57.2184 69.0739 57.4786C68.9638 57.7389 68.7896 57.9591 68.5715 58.1136C68.3534 58.268 68.1004 58.3504 67.8418 58.3511ZM67.0791 56.6636C67.0441 56.8593 67.0713 57.0624 67.1558 57.2383C67.2403 57.4142 67.3771 57.552 67.5427 57.6283C67.7084 57.7046 67.8927 57.7146 68.0642 57.6566C68.2357 57.5986 68.3839 57.4763 68.4834 57.3104C68.583 57.1445 68.6277 56.9453 68.6101 56.7468C68.5924 56.5483 68.5135 56.3627 68.3867 56.2217C68.2598 56.0807 68.093 55.9931 67.9146 55.9736C67.7362 55.9542 67.5572 56.0042 67.4082 56.1151C67.2376 56.2422 67.1192 56.4395 67.0791 56.6636Z" fill="#757575"/>
<path d="M25.9688 31.2182C24.9925 29.8524 23.2061 29.6259 21.9787 30.7122C20.7513 31.7986 20.5478 33.7863 21.524 35.1521L38.2366 58.5319C39.2129 59.8977 40.9993 60.1242 42.2267 59.0379C43.4541 57.9515 43.6577 55.9638 42.6814 54.598L25.9688 31.2182Z" fill="white"/>
<path d="M40.4623 60.0525C39.9901 60.0535 39.5238 59.9357 39.0984 59.7079C38.6729 59.4801 38.2993 59.1482 38.0054 58.737L21.2927 35.3571C20.7751 34.633 20.5371 33.7097 20.6312 32.7904C20.7254 31.8711 21.1438 31.031 21.7946 30.455C22.4453 29.879 23.2751 29.6142 24.1013 29.719C24.9275 29.8237 25.6824 30.2893 26.2001 31.0134L42.9127 54.3936C43.2799 54.9068 43.5096 55.5249 43.5753 56.1768C43.641 56.8287 43.5401 57.4881 43.2842 58.0791C43.0282 58.6701 42.6277 59.1687 42.1285 59.5178C41.6294 59.8669 41.0518 60.0522 40.4623 60.0525ZM23.7439 30.3554C23.2656 30.3558 22.797 30.5063 22.3921 30.7896C21.9871 31.0729 21.6622 31.4776 21.4545 31.9571C21.2469 32.4366 21.165 32.9715 21.2182 33.5005C21.2714 34.0294 21.4576 34.5309 21.7554 34.9475L38.4679 58.3273C38.8883 58.9142 39.5008 59.2915 40.171 59.3765C40.8412 59.4615 41.5143 59.2472 42.0426 58.7807C42.3041 58.5493 42.5221 58.2628 42.6841 57.9377C42.8461 57.6125 42.949 57.2551 42.9868 56.8857C43.0246 56.5163 42.9967 56.1423 42.9046 55.7849C42.8125 55.4275 42.658 55.0939 42.45 54.8029L25.7376 31.4231C25.4991 31.0894 25.1959 30.8201 24.8507 30.6352C24.5054 30.4503 24.1271 30.3547 23.7439 30.3554Z" fill="#757575"/>
<path d="M40.649 58.0219C41.24 58.0219 41.7191 57.4888 41.7191 56.8311C41.7191 56.1735 41.24 55.6404 40.649 55.6404C40.058 55.6404 39.5789 56.1735 39.5789 56.8311C39.5789 57.4888 40.058 58.0219 40.649 58.0219Z" fill="white"/>
<path d="M40.6462 58.3511C40.3875 58.3506 40.1343 58.2683 39.916 58.1139C39.6977 57.9595 39.5232 57.7393 39.413 57.479C39.3027 57.2186 39.2612 56.9287 39.2932 56.6431C39.3252 56.3574 39.4295 56.0878 39.5938 55.8655C39.7582 55.6432 39.9759 55.4775 40.2216 55.3875C40.4673 55.2975 40.731 55.287 40.9818 55.3572C41.2327 55.4274 41.4605 55.5754 41.6387 55.7841C41.8169 55.9927 41.9382 56.2534 41.9885 56.5357C42.0275 56.7563 42.0221 56.9837 41.9727 57.2017C41.9233 57.4196 41.8312 57.6227 41.7028 57.7963C41.5745 57.9698 41.4131 58.1096 41.2305 58.2056C41.0478 58.3015 40.8482 58.3512 40.6462 58.3511ZM40.6507 55.969C40.491 55.9686 40.3351 56.0231 40.2043 56.1252C40.0735 56.2272 39.9742 56.3717 39.9201 56.5389C39.866 56.7061 39.8597 56.8879 39.902 57.0593C39.9443 57.2306 40.0332 57.3833 40.1565 57.4963C40.2798 57.6092 40.4315 57.677 40.5908 57.6904C40.75 57.7037 40.9091 57.6619 41.0462 57.5708C41.1834 57.4796 41.2918 57.3435 41.3567 57.1811C41.4216 57.0187 41.4398 56.8379 41.4088 56.6636C41.3739 56.4682 41.2793 56.2923 41.1412 56.1657C41.003 56.0391 40.8297 55.9696 40.6507 55.969Z" fill="#757575"/>
<path d="M56.4565 75.9934C56.4565 74.6335 55.4658 73.5311 54.2437 73.5311C53.0217 73.5311 52.031 74.6335 52.031 75.9934V99.2723C52.031 100.632 53.0217 101.735 54.2437 101.735C55.4658 101.735 56.4565 100.632 56.4565 99.2723V75.9934Z" fill="black"/>
<path d="M35.3033 75.7538C35.1155 74.41 33.9844 73.4901 32.7768 73.699C31.5692 73.9079 30.7425 75.1666 30.9303 76.5103L34.1446 99.5128C34.3324 100.857 35.4635 101.776 36.671 101.568C37.8786 101.359 38.7053 100.1 38.5175 98.7562L35.3033 75.7538Z" fill="black"/>
<path d="M70.4265 98.7559C70.2388 100.1 71.0655 101.358 72.273 101.567C73.4806 101.776 74.6117 100.856 74.7995 99.5125L78.0137 76.51C78.2015 75.1663 77.3748 73.9076 76.1672 73.6987C74.9597 73.4898 73.8286 74.4097 73.6408 75.7535L70.4265 98.7559Z" fill="black"/>
<path d="M43.3247 42.3982C43.2614 42.3982 43.1996 42.3762 43.1481 42.3353C43.0819 42.2832 43.037 42.204 43.0233 42.1152C43.0097 42.0264 43.0284 41.9352 43.0753 41.8616C43.1319 41.7729 48.6635 32.8949 42.4882 24.801C41.3953 23.361 40.0318 22.2038 38.4935 21.4105C36.9552 20.6171 35.2793 20.2069 33.5831 20.2084H33.4998C34.0863 22.4701 33.9816 24.4809 33.1512 26.0236C32.7974 26.7207 32.2753 27.2943 31.6437 27.6797C31.012 28.0651 30.296 28.2471 29.5763 28.2051C28.9805 28.1509 28.4119 27.905 27.9401 27.4975C27.4682 27.09 27.1137 26.5386 26.9199 25.9108C26.2407 23.9441 26.9505 22.0372 28.8212 20.8081C30.0063 20.0826 31.3231 19.6621 32.6743 19.5777C32.2348 18.2839 31.6632 17.0503 30.9707 15.9009C28.741 12.1203 24.6773 9.50326 19.8212 8.72072C15.7057 8.05778 11.7617 8.83863 9.7719 10.7095C9.70992 10.7677 9.62965 10.7962 9.54875 10.7887C9.46784 10.7813 9.39293 10.7384 9.34049 10.6696C9.28805 10.6008 9.26238 10.5117 9.26913 10.4219C9.27587 10.332 9.31448 10.2489 9.37646 10.1907C11.4939 8.19982 15.628 7.35815 19.909 8.04997C24.9387 8.86071 29.157 11.5869 31.4831 15.5301C32.2373 16.7807 32.8507 18.1291 33.3098 19.5451C35.1395 19.4963 36.9558 19.9039 38.6249 20.7378C40.294 21.5716 41.7732 22.8106 42.9538 24.3634C49.4404 32.8646 43.6323 42.1634 43.573 42.2565C43.5447 42.3002 43.5074 42.3359 43.4642 42.3606C43.4211 42.3852 43.3733 42.3981 43.3247 42.3982ZM32.873 20.2332C31.5629 20.2952 30.2835 20.6922 29.1343 21.3933C27.5195 22.4541 26.9214 24.0124 27.4929 25.6678C27.6477 26.1751 27.9323 26.6212 28.312 26.9517C28.6916 27.2822 29.1498 27.4826 29.6305 27.5285C30.2357 27.5586 30.8365 27.4012 31.3657 27.074C31.8949 26.7467 32.3317 26.2624 32.6272 25.6753C33.3893 24.2584 33.4591 22.3749 32.8721 20.2332H32.873Z" fill="#5F6064"/>
<path d="M4.48957 16.1879C3.96944 16.3614 3.40887 16.3026 2.92721 16.0241C2.44554 15.7455 2.08084 15.2693 1.91075 14.6967C1.74067 14.1241 1.77863 13.5004 2.01657 12.9584C2.25451 12.4165 2.67362 11.999 3.18466 11.795C3.6957 11.5909 4.2583 11.6164 4.75267 11.866C5.24704 12.1156 5.63412 12.5696 5.8315 13.1312C6.02887 13.6929 6.02094 14.318 5.8094 14.8733C5.59786 15.4286 5.19943 15.8703 4.69892 16.1043C4.63056 16.1364 4.56067 16.1643 4.48957 16.1879ZM3.47188 12.4121C3.4223 12.4287 3.37356 12.4482 3.32588 12.4706C2.97372 12.6354 2.69344 12.9464 2.54474 13.3373C2.39605 13.7281 2.39068 14.168 2.52979 14.5632C2.66891 14.9584 2.9415 15.2777 3.28952 15.453C3.63754 15.6284 4.03348 15.646 4.39301 15.5021C4.75254 15.3581 5.04725 15.0641 5.21437 14.6825C5.38149 14.3009 5.40781 13.862 5.28773 13.4592C5.16765 13.0563 4.91065 12.7215 4.57148 12.5259C4.23231 12.3304 3.83777 12.2895 3.47188 12.4121Z" fill="#292A2E"/>
<path d="M4.48587 10.8634C3.99385 11.0265 3.4649 10.9819 3.0007 10.7382C2.5365 10.4946 2.16983 10.069 1.97118 9.54332C1.8119 9.1219 1.76878 8.65751 1.84725 8.20887C1.92572 7.76024 2.12227 7.34752 2.41204 7.02291C2.70181 6.69829 3.07178 6.47636 3.47516 6.38519C3.87855 6.29402 4.29722 6.3377 4.67825 6.5107C5.05927 6.6837 5.38553 6.97826 5.61575 7.35712C5.84598 7.73598 5.96983 8.18213 5.97164 8.63914C5.97346 9.09614 5.85316 9.54348 5.62596 9.92459C5.39876 10.3057 5.07486 10.6034 4.69522 10.7802C4.62679 10.8119 4.55691 10.8397 4.48587 10.8634ZM3.4694 7.0873C3.41923 7.10401 3.36989 7.12363 3.32157 7.14609C2.96251 7.31352 2.67802 7.63238 2.53063 8.03258C2.38325 8.43278 2.38503 8.88157 2.53558 9.28032C2.64537 9.57099 2.82868 9.82011 3.06333 9.99755C3.29798 10.175 3.57392 10.2732 3.85776 10.2802C4.1416 10.2872 4.4212 10.2027 4.66272 10.037C4.90424 9.87133 5.09734 9.63149 5.21866 9.34653C5.33999 9.06157 5.38434 8.74368 5.34635 8.43132C5.30836 8.11896 5.18966 7.82552 5.0046 7.58648C4.81955 7.34744 4.57607 7.17304 4.30361 7.08439C4.03116 6.99575 3.74141 6.99664 3.4694 7.08696V7.0873Z" fill="#292A2E"/>
<path d="M3.89176 13.2664C5.39485 13.2664 6.61335 12.3629 6.61335 11.2484C6.61335 10.1338 5.39485 9.23035 3.89176 9.23035C2.38866 9.23035 1.17017 10.1338 1.17017 11.2484C1.17017 12.3629 2.38866 13.2664 3.89176 13.2664Z" fill="white"/>
<path d="M5.09631 13.4149C4.70611 13.5429 4.30125 13.6075 3.89437 13.6065C2.19628 13.6065 0.864258 12.5736 0.864258 11.2514C0.864258 9.92929 2.1923 8.89259 3.88978 8.89055C4.62985 8.87479 5.35797 9.09916 5.98484 9.53615C6.26638 9.69899 6.50235 9.94435 6.66712 10.2456C6.83189 10.5468 6.91915 10.8925 6.91944 11.2449C6.91972 11.5973 6.83301 11.9431 6.66873 12.2447C6.50445 12.5462 6.26887 12.7921 5.98759 12.9555C5.71262 13.1567 5.41225 13.3116 5.09631 13.4149ZM2.87362 9.73187C2.0558 10.0037 1.4761 10.5905 1.4764 11.2497C1.4764 12.1593 2.58346 12.9269 3.89437 12.9256C4.51361 12.94 5.12324 12.754 5.64877 12.3901C5.84587 12.2893 6.0128 12.1278 6.12974 11.9249C6.24668 11.722 6.30874 11.4861 6.30855 11.2452C6.30835 11.0043 6.24592 10.7685 6.12865 10.5658C6.01138 10.3631 5.8442 10.202 5.64694 10.1016C5.12102 9.73843 4.5111 9.5535 3.89192 9.56945C3.54719 9.56845 3.20416 9.62317 2.87362 9.73187Z" fill="#292A2E"/>
<path d="M4.55928 13.205L4.495 9.28038L3.61597 9.24097L3.55444 13.2508L4.55928 13.205Z" fill="#292A2E"/>
<path d="M0.280974 12.1023C0.436151 12.1023 0.561947 11.9626 0.561947 11.7903C0.561947 11.618 0.436151 11.4784 0.280974 11.4784C0.125796 11.4784 0 11.618 0 11.7903C0 11.9626 0.125796 12.1023 0.280974 12.1023Z" fill="#292A2E"/>
<path d="M0.500456 10.4332C0.655634 10.4332 0.78143 10.2935 0.78143 10.1213C0.78143 9.94898 0.655634 9.80933 0.500456 9.80933C0.345279 9.80933 0.219482 9.94898 0.219482 10.1213C0.219482 10.2935 0.345279 10.4332 0.500456 10.4332Z" fill="#292A2E"/>
<path d="M65.7453 45.1125C65.6798 45.1125 65.6161 45.0891 65.5634 45.0459C65.5107 45.0026 65.4719 44.9418 65.4527 44.8722C64.4375 40.6635 64.1666 36.2762 64.6551 31.953C65.4463 25.6329 68.586 17.3382 79.0497 13.7062C80.522 13.1807 82.0322 12.7963 83.5636 12.5573C84.0567 9.1387 85.9323 5.43021 90.127 2.87157C100.093 -3.20798 106.825 2.2467 106.892 2.30242C106.957 2.35649 107 2.43699 107.011 2.5262C107.023 2.61541 107.002 2.70604 106.953 2.77813C106.905 2.85023 106.832 2.89789 106.752 2.91063C106.671 2.92338 106.59 2.90016 106.525 2.84609C106.461 2.79308 100.028 -2.39248 90.4221 3.46757C86.5025 5.85869 84.7083 9.29058 84.1981 12.4765C88.8134 11.9719 91.0235 13.681 92.0155 14.9719C92.6292 15.7482 93.0236 16.7078 93.1496 17.7311C93.2755 18.7545 93.1274 19.7964 92.7237 20.727C92.4047 21.4791 91.8877 22.1062 91.241 22.5253C90.5942 22.9445 89.8482 23.136 89.1014 23.0746C86.5239 22.9067 84.3909 20.4996 83.668 16.942C83.4295 15.7377 83.3661 14.4988 83.4801 13.2723C82.0396 13.502 80.6189 13.8647 79.2327 14.3565C71.0774 17.1873 66.3777 23.1402 65.2611 32.0485C64.7828 36.2736 65.0466 40.5615 66.0379 44.6752C66.052 44.726 66.0551 44.7797 66.047 44.8321C66.0389 44.8845 66.0199 44.934 65.9914 44.9767C65.963 45.0195 65.9259 45.0542 65.8831 45.0781C65.8404 45.102 65.7932 45.1145 65.7453 45.1145V45.1125ZM84.1041 13.1873C83.9766 14.3905 84.031 15.6089 84.2651 16.7922C84.9266 20.0467 86.8389 22.2462 89.1372 22.396C89.7636 22.4458 90.389 22.2843 90.9312 21.9326C91.4735 21.5809 91.9073 21.0555 92.1759 20.4252C92.5258 19.6137 92.653 18.7059 92.5415 17.8148C92.43 16.9236 92.0849 16.0886 91.549 15.4136C90.1178 13.5492 87.5061 12.7962 84.1041 13.1873Z" fill="#5F6064"/>
<path d="M114.022 5.73664C113.609 5.73568 113.206 5.60533 112.858 5.36062C112.509 5.11592 112.23 4.76685 112.053 4.35369C111.876 3.94052 111.807 3.48012 111.855 3.02561C111.904 2.5711 112.067 2.14101 112.326 1.78498C112.585 1.42895 112.929 1.1615 113.319 1.01348C113.709 0.865466 114.129 0.842926 114.53 0.948462C114.932 1.054 115.298 1.28331 115.586 1.60993C115.875 1.93655 116.075 2.34716 116.162 2.79438C116.231 3.14889 116.227 3.51595 116.152 3.86868C116.076 4.2214 115.93 4.55087 115.725 4.83295C115.52 5.11503 115.26 5.34258 114.965 5.49894C114.671 5.6553 114.348 5.73652 114.022 5.73664ZM114.026 1.56264C113.701 1.56263 113.383 1.67471 113.117 1.88345C112.852 2.09218 112.651 2.38729 112.542 2.72809C112.434 3.06889 112.424 3.43862 112.513 3.7863C112.601 4.13399 112.785 4.44252 113.039 4.66937C113.292 4.89623 113.603 5.03024 113.927 5.05293C114.252 5.07562 114.576 4.98588 114.853 4.79608C115.13 4.60627 115.347 4.32575 115.474 3.99317C115.602 3.66059 115.633 3.29232 115.564 2.93913C115.489 2.54836 115.296 2.1981 115.016 1.94736C114.736 1.69662 114.386 1.56075 114.026 1.56264Z" fill="#292A2E"/>
<path d="M113.1 11.2823C112.539 11.2823 112 11.0435 111.592 10.6151C111.185 10.1867 110.941 9.60129 110.911 8.97941C110.881 8.35753 111.067 7.74649 111.43 7.27209C111.794 6.79769 112.307 6.49603 112.865 6.42922C113.423 6.3624 113.982 6.5355 114.429 6.9129C114.875 7.2903 115.174 7.84326 115.264 8.45796C115.354 9.07266 115.228 9.7023 114.913 10.2173C114.597 10.7323 114.116 11.0934 113.568 11.2263C113.414 11.2635 113.257 11.2823 113.1 11.2823ZM113.108 7.108C112.995 7.10806 112.882 7.12161 112.771 7.14844C112.38 7.24377 112.037 7.50182 111.812 7.86952C111.587 8.23721 111.498 8.68657 111.563 9.12515C111.627 9.56372 111.841 9.95815 112.159 10.2273C112.478 10.4964 112.877 10.6198 113.275 10.572C113.673 10.5242 114.039 10.3089 114.299 9.97032C114.558 9.6318 114.691 9.1958 114.669 8.75205C114.648 8.3083 114.474 7.89054 114.183 7.58472C113.893 7.27891 113.508 7.1083 113.108 7.108Z" fill="#292A2E"/>
<path d="M116.387 6.72926C116.58 5.56865 115.468 4.36784 113.902 4.04719C112.337 3.72654 110.912 4.40747 110.719 5.56808C110.526 6.72869 111.639 7.92949 113.204 8.25014C114.769 8.57079 116.194 7.88987 116.387 6.72926Z" fill="white"/>
<path d="M113.975 8.66976C113.697 8.66927 113.421 8.64083 113.148 8.58482C112.378 8.44304 111.663 8.055 111.089 7.46826C110.837 7.23028 110.644 6.92581 110.527 6.583C110.41 6.2402 110.372 5.87012 110.418 5.50698C110.492 5.14966 110.646 4.81883 110.866 4.54505C111.086 4.27127 111.364 4.06337 111.675 3.94054C112.403 3.63527 113.193 3.55678 113.958 3.71357C114.723 3.87036 115.435 4.25646 116.017 4.83012C116.269 5.0681 116.462 5.37257 116.579 5.71537C116.696 6.05818 116.734 6.42826 116.688 6.7914C116.614 7.14872 116.46 7.47954 116.24 7.75332C116.02 8.0271 115.742 8.23501 115.431 8.35783C114.969 8.56987 114.474 8.67598 113.975 8.66976ZM113.129 4.30752C112.714 4.30165 112.301 4.38914 111.917 4.56474C111.699 4.64556 111.504 4.78533 111.347 4.97139C111.19 5.15745 111.078 5.38393 111.02 5.63033C110.995 5.88342 111.027 6.13948 111.114 6.37532C111.2 6.61116 111.338 6.81933 111.515 6.981C112.01 7.46071 112.613 7.78372 113.259 7.91614C113.905 8.04856 114.571 7.98552 115.188 7.73364C115.406 7.65282 115.602 7.51305 115.758 7.32699C115.915 7.14093 116.027 6.91445 116.085 6.66805C116.11 6.41494 116.078 6.15882 115.992 5.92295C115.905 5.68708 115.767 5.47892 115.59 5.31738C115.103 4.82392 114.496 4.49885 113.845 4.38193C113.609 4.33319 113.37 4.30829 113.13 4.30752H113.129Z" fill="#292A2E"/>
<path d="M113.199 3.96899L112.584 8.06892L113.492 8.29862L114.254 4.13651L113.199 3.96899Z" fill="#292A2E"/>
<path d="M116.889 8.37992C117.054 8.37992 117.187 8.23205 117.187 8.04964C117.187 7.86723 117.054 7.71936 116.889 7.71936C116.725 7.71936 116.592 7.86723 116.592 8.04964C116.592 8.23205 116.725 8.37992 116.889 8.37992Z" fill="#292A2E"/>
<path d="M117.408 6.689C117.572 6.689 117.705 6.54113 117.705 6.35872C117.705 6.17631 117.572 6.02844 117.408 6.02844C117.244 6.02844 117.11 6.17631 117.11 6.35872C117.11 6.54113 117.244 6.689 117.408 6.689Z" fill="#292A2E"/>
</svg>
